<svg xmlns="http://www.w3.org/2000/svg" xmlns:xlink="http://www.w3.org/1999/xlink" xmlns:lucid="lucid" width="821.5" height="180.5"><g transform="translate(620.5 600.5)" lucid:page-tab-id="0_0"><path d="M-1000-1000H500V0h-1500z" fill="#fff"/><path d="M-560.25-580.25c0 10.9-8.84 19.75-19.75 19.75-10.9 0-19.75-8.84-19.75-19.75 0-10.9 8.84-19.75 19.75-19.75 10.9 0 19.75 8.84 19.75 19.75z" stroke="#333" fill="#fff"/><path d="M-580-560.5v47.3a27.6 27.6 0 0 0 4.28 14.76L-540-442m-40-63.2l-40 63.2m0-98.75h80" stroke="#333" fill="none"/><path d="M-620-592a8 8 0 0 1 8-8h64a8 8 0 0 1 8 8v164a8 8 0 0 1-8 8h-64a8 8 0 0 1-8-8z" fill="none"/><use xlink:href="#a" transform="matrix(1,0,0,1,-700,-442) translate(94.1358024691358 17.77777777777778)"/><path d="M-579-522.27h223.5M-579-522.27h-3.5" stroke="#3a414a" fill="none"/><path d="M-342-522.27l-13 7.5v-15z" stroke="#3a414a" fill="#3a414a"/><path d="M-340-574a6 6 0 0 1 6-6h148a6 6 0 0 1 6 6v108a6 6 0 0 1-6 6h-148a6 6 0 0 1-6-6z" stroke="#000" stroke-width="2" fill="#fff"/><use xlink:href="#b" transform="matrix(1,0,0,1,-328,-568) translate(38.37037037037037 53.77777777777778)"/><path d="M-178.5-520H22.62" stroke="#3a414a" fill="none"/><path d="M-178.5-519.52h-.5v-.96h.5z" stroke="#3a414a" stroke-width=".05" fill="#3a414a"/><path d="M37.38-520l-14.26 4.63v-9.26z" stroke="#3a414a" fill="#3a414a"/><path d="M40-574a6 6 0 0 1 6-6h148a6 6 0 0 1 6 6v108a6 6 0 0 1-6 6H46a6 6 0 0 1-6-6z" stroke="#282c33" stroke-width="2" fill="#fff"/><use xlink:href="#c" transform="matrix(1,0,0,1,52,-568) translate(30.074074074074076 53.06666666666667)"/><path d="M-180-574a6 6 0 0 1 6-6H54a6 6 0 0 1 6 6v48a6 6 0 0 1-6 6h-228a6 6 0 0 1-6-6z" fill="none"/><use xlink:href="#d" transform="matrix(1,0,0,1,-180,-580) translate(105.21604938271605 34.44444444444444)"/><path d="M38.5-498.28h-201.12" stroke="#3a414a" fill="none"/><path d="M39-497.8h-.5v-.95h.5z" stroke="#3a414a" stroke-width=".05" fill="#3a414a"/><path d="M-177.38-498.28l14.26-4.63v9.26z" stroke="#3a414a" fill="#3a414a"/><path d="M-180-494a6 6 0 0 1 6-6H54a6 6 0 0 1 6 6v48a6 6 0 0 1-6 6h-228a6 6 0 0 1-6-6z" fill="none"/><use xlink:href="#e" transform="matrix(1,0,0,1,-180,-500) translate(68.53333333333333 34.266666666666666)"/><path d="M-341.5-504.28h-222.1" stroke="#3a414a" fill="none"/><path d="M-341-503.8h-.5v-.95h.5z" stroke="#3a414a" stroke-width=".05" fill="#3a414a"/><path d="M-578.37-504.28l14.26-4.63v9.26z" stroke="#3a414a" fill="#3a414a"/><path d="M-560-574a6 6 0 0 1 6-6h188a6 6 0 0 1 6 6v8a6 6 0 0 1-6 6h-188a6 6 0 0 1-6-6z" fill="none"/><use xlink:href="#f" transform="matrix(1,0,0,1,-560,-580) translate(20.708641975308637 17.77777777777778)"/><use xlink:href="#g" transform="matrix(1,0,0,1,-560,-580) translate(100.89382716049381 17.77777777777778)"/><use xlink:href="#h" transform="matrix(1,0,0,1,-560,-580) translate(75.58641975308642 44.44444444444444)"/><path d="M-580-494a6 6 0 0 1 6-6h228a6 6 0 0 1 6 6v48a6 6 0 0 1-6 6h-228a6 6 0 0 1-6-6z" fill="none"/><g><use xlink:href="#i" transform="matrix(1,0,0,1,-580,-500) translate(76.17777777777778 34.266666666666666)"/></g><defs><path d="M96-169c-40 0-48 33-48 73s9 75 48 75c24 0 41-14 43-38l32 2c-6 37-31 61-74 61-59 0-76-41-82-99-10-93 101-131 147-64 4 7 5 14 7 22l-32 3c-4-21-16-35-41-35" id="j"/><path d="M24 0v-261h32V0H24" id="k"/><path d="M24-231v-30h32v30H24zM24 0v-190h32V0H24" id="l"/><path d="M100-194c63 0 86 42 84 106H49c0 40 14 67 53 68 26 1 43-12 49-29l28 8c-11 28-37 45-77 45C44 4 14-33 15-96c1-61 26-98 85-98zm52 81c6-60-76-77-97-28-3 7-6 17-6 28h103" id="m"/><path d="M117-194c89-4 53 116 60 194h-32v-121c0-31-8-49-39-48C34-167 62-67 57 0H25l-1-190h30c1 10-1 24 2 32 11-22 29-35 61-36" id="n"/><path d="M59-47c-2 24 18 29 38 22v24C64 9 27 4 27-40v-127H5v-23h24l9-43h21v43h35v23H59v120" id="o"/><g id="a"><use transform="matrix(0.06172839506172839,0,0,0.06172839506172839,0,0)" xlink:href="#j"/><use transform="matrix(0.06172839506172839,0,0,0.06172839506172839,11.11111111111111,0)" xlink:href="#k"/><use transform="matrix(0.06172839506172839,0,0,0.06172839506172839,15.987654320987653,0)" xlink:href="#l"/><use transform="matrix(0.06172839506172839,0,0,0.06172839506172839,20.864197530864196,0)" xlink:href="#m"/><use transform="matrix(0.06172839506172839,0,0,0.06172839506172839,33.20987654320987,0)" xlink:href="#n"/><use transform="matrix(0.06172839506172839,0,0,0.06172839506172839,45.55555555555555,0)" xlink:href="#o"/></g><path d="M85-194c31 0 48 13 60 33l-1-100h32l1 261h-30c-2-10 0-23-3-31C134-8 116 4 85 4 32 4 16-35 15-94c0-66 23-100 70-100zm9 24c-40 0-46 34-46 75 0 40 6 74 45 74 42 0 51-32 51-76 0-42-9-74-50-73" id="p"/><path d="M135-143c-3-34-86-38-87 0 15 53 115 12 119 90S17 21 10-45l28-5c4 36 97 45 98 0-10-56-113-15-118-90-4-57 82-63 122-42 12 7 21 19 24 35" id="q"/><path d="M177-190C167-65 218 103 67 71c-23-6-38-20-44-43l32-5c15 47 100 32 89-28v-30C133-14 115 1 83 1 29 1 15-40 15-95c0-56 16-97 71-98 29-1 48 16 59 35 1-10 0-23 2-32h30zM94-22c36 0 50-32 50-73 0-42-14-75-50-75-39 0-46 34-46 75s6 73 46 73" id="r"/><g id="b"><use transform="matrix(0.06172839506172839,0,0,0.06172839506172839,0,0)" xlink:href="#p"/><use transform="matrix(0.06172839506172839,0,0,0.06172839506172839,12.345679012345679,0)" xlink:href="#m"/><use transform="matrix(0.06172839506172839,0,0,0.06172839506172839,24.691358024691358,0)" xlink:href="#q"/><use transform="matrix(0.06172839506172839,0,0,0.06172839506172839,35.80246913580247,0)" xlink:href="#j"/><use transform="matrix(0.06172839506172839,0,0,0.06172839506172839,46.91358024691358,0)" xlink:href="#r"/></g><path d="M169-182c-1-43-94-46-97-3 18 66 151 10 154 114 3 95-165 93-204 36-6-8-10-19-12-30l50-8c3 46 112 56 116 5-17-69-150-10-154-114-4-87 153-88 188-35 5 8 8 18 10 28" id="s"/><path d="M185-48c-13 30-37 53-82 52C43 2 14-33 14-96s30-98 90-98c62 0 83 45 84 108H66c0 31 8 55 39 56 18 0 30-7 34-22zm-45-69c5-46-57-63-70-21-2 6-4 13-4 21h74" id="t"/><path d="M135-150c-39-12-60 13-60 57V0H25l-1-190h47c2 13-1 29 3 40 6-28 27-53 61-41v41" id="u"/><path d="M128 0H69L1-190h53L99-40l48-150h52" id="v"/><path d="M25-224v-37h50v37H25zM25 0v-190h50V0H25" id="w"/><path d="M190-63c-7 42-38 67-86 67-59 0-84-38-90-98-12-110 154-137 174-36l-49 2c-2-19-15-32-35-32-30 0-35 28-38 64-6 74 65 87 74 30" id="x"/><g id="c"><use transform="matrix(0.05925925925925927,0,0,0.05925925925925927,0,0)" xlink:href="#s"/><use transform="matrix(0.05925925925925927,0,0,0.05925925925925927,14.222222222222225,0)" xlink:href="#t"/><use transform="matrix(0.05925925925925927,0,0,0.05925925925925927,26.074074074074076,0)" xlink:href="#u"/><use transform="matrix(0.05925925925925927,0,0,0.05925925925925927,34.370370370370374,0)" xlink:href="#v"/><use transform="matrix(0.05925925925925927,0,0,0.05925925925925927,46.22222222222223,0)" xlink:href="#w"/><use transform="matrix(0.05925925925925927,0,0,0.05925925925925927,52.14814814814815,0)" xlink:href="#x"/><use transform="matrix(0.05925925925925927,0,0,0.05925925925925927,64,0)" xlink:href="#t"/></g><path d="M141-36C126-15 110 5 73 4 37 3 15-17 15-53c-1-64 63-63 125-63 3-35-9-54-41-54-24 1-41 7-42 31l-33-3c5-37 33-52 76-52 45 0 72 20 72 64v82c-1 20 7 32 28 27v20c-31 9-61-2-59-35zM48-53c0 20 12 33 32 33 41-3 63-29 60-74-43 2-92-5-92 41" id="y"/><path d="M115-194c55 1 70 41 70 98S169 2 115 4C84 4 66-9 55-30l1 105H24l-1-265h31l2 30c10-21 28-34 59-34zm-8 174c40 0 45-34 45-75s-6-73-45-74c-42 0-51 32-51 76 0 43 10 73 51 73" id="z"/><g id="d"><use transform="matrix(0.06172839506172839,0,0,0.06172839506172839,0,0)" xlink:href="#y"/><use transform="matrix(0.06172839506172839,0,0,0.06172839506172839,12.345679012345679,0)" xlink:href="#z"/><use transform="matrix(0.06172839506172839,0,0,0.06172839506172839,24.691358024691358,0)" xlink:href="#l"/></g><path d="M114-163C36-179 61-72 57 0H25l-1-190h30c1 12-1 29 2 39 6-27 23-49 58-41v29" id="A"/><path d="M100-194c62-1 85 37 85 99 1 63-27 99-86 99S16-35 15-95c0-66 28-99 85-99zM99-20c44 1 53-31 53-75 0-43-8-75-51-75s-53 32-53 75 10 74 51 75" id="B"/><g id="e"><use transform="matrix(0.05925925925925927,0,0,0.05925925925925927,0,0)" xlink:href="#p"/><use transform="matrix(0.05925925925925927,0,0,0.05925925925925927,11.851851851851853,0)" xlink:href="#m"/><use transform="matrix(0.05925925925925927,0,0,0.05925925925925927,23.703703703703706,0)" xlink:href="#q"/><use transform="matrix(0.05925925925925927,0,0,0.05925925925925927,34.370370370370374,0)" xlink:href="#j"/><use transform="matrix(0.05925925925925927,0,0,0.05925925925925927,45.03703703703704,0)" xlink:href="#A"/><use transform="matrix(0.05925925925925927,0,0,0.05925925925925927,52.08888888888889,0)" xlink:href="#l"/><use transform="matrix(0.05925925925925927,0,0,0.05925925925925927,56.77037037037037,0)" xlink:href="#z"/><use transform="matrix(0.05925925925925927,0,0,0.05925925925925927,68.62222222222222,0)" xlink:href="#o"/><use transform="matrix(0.05925925925925927,0,0,0.05925925925925927,74.54814814814814,0)" xlink:href="#l"/><use transform="matrix(0.05925925925925927,0,0,0.05925925925925927,79.22962962962963,0)" xlink:href="#B"/><use transform="matrix(0.05925925925925927,0,0,0.05925925925925927,91.08148148148148,0)" xlink:href="#n"/></g><path d="M145-31C134-9 116 4 85 4 32 4 16-35 15-94c0-59 17-99 70-100 32-1 48 14 60 33 0-11-1-24 2-32h30l-1 268h-32zM93-21c41 0 51-33 51-76s-8-73-50-73c-40 0-46 35-46 75s5 74 45 74" id="C"/><path d="M84 4C-5 8 30-112 23-190h32v120c0 31 7 50 39 49 72-2 45-101 50-169h31l1 190h-30c-1-10 1-25-2-33-11 22-28 36-60 37" id="D"/><g id="f"><use transform="matrix(0.06172839506172839,0,0,0.06172839506172839,0,0)" xlink:href="#A"/><use transform="matrix(0.06172839506172839,0,0,0.06172839506172839,7.345679012345679,0)" xlink:href="#m"/><use transform="matrix(0.06172839506172839,0,0,0.06172839506172839,19.691358024691358,0)" xlink:href="#C"/><use transform="matrix(0.06172839506172839,0,0,0.06172839506172839,32.03703703703704,0)" xlink:href="#D"/><use transform="matrix(0.06172839506172839,0,0,0.06172839506172839,44.382716049382715,0)" xlink:href="#m"/><use transform="matrix(0.06172839506172839,0,0,0.06172839506172839,56.72839506172839,0)" xlink:href="#q"/><use transform="matrix(0.06172839506172839,0,0,0.06172839506172839,67.8395061728395,0)" xlink:href="#o"/></g><path d="M87 75C49 33 22-17 22-94c0-76 28-126 65-167h31c-38 41-64 92-64 168S80 34 118 75H87" id="E"/><g id="g"><use transform="matrix(0.06172839506172839,0,0,0.06172839506172839,0,0)" xlink:href="#E"/><use transform="matrix(0.05925925925925927,0,0,0.05925925925925927,7.345679012345679,0)" xlink:href="#z"/><use transform="matrix(0.05925925925925927,0,0,0.05925925925925927,19.19753086419753,0)" xlink:href="#A"/><use transform="matrix(0.05925925925925927,0,0,0.05925925925925927,26.249382716049386,0)" xlink:href="#B"/><use transform="matrix(0.05925925925925927,0,0,0.05925925925925927,38.10123456790124,0)" xlink:href="#p"/><use transform="matrix(0.05925925925925927,0,0,0.05925925925925927,49.95308641975309,0)" xlink:href="#D"/><use transform="matrix(0.05925925925925927,0,0,0.05925925925925927,61.80493827160495,0)" xlink:href="#j"/><use transform="matrix(0.05925925925925927,0,0,0.05925925925925927,72.47160493827161,0)" xlink:href="#o"/></g><path d="M33-261c38 41 65 92 65 168S71 34 33 75H2C39 34 66-17 66-93S39-220 2-261h31" id="F"/><g id="h"><use transform="matrix(0.05925925925925927,0,0,0.05925925925925927,0,0)" xlink:href="#p"/><use transform="matrix(0.05925925925925927,0,0,0.05925925925925927,11.851851851851853,0)" xlink:href="#y"/><use transform="matrix(0.05925925925925927,0,0,0.05925925925925927,23.703703703703706,0)" xlink:href="#o"/><use transform="matrix(0.05925925925925927,0,0,0.05925925925925927,29.629629629629633,0)" xlink:href="#y"/><use transform="matrix(0.06172839506172839,0,0,0.06172839506172839,41.48148148148149,0)" xlink:href="#F"/></g><g id="i"><use transform="matrix(0.05925925925925927,0,0,0.05925925925925927,0,0)" xlink:href="#A"/><use transform="matrix(0.05925925925925927,0,0,0.05925925925925927,7.051851851851853,0)" xlink:href="#m"/><use transform="matrix(0.05925925925925927,0,0,0.05925925925925927,18.903703703703705,0)" xlink:href="#q"/><use transform="matrix(0.05925925925925927,0,0,0.05925925925925927,29.570370370370373,0)" xlink:href="#z"/><use transform="matrix(0.05925925925925927,0,0,0.05925925925925927,41.422222222222224,0)" xlink:href="#B"/><use transform="matrix(0.05925925925925927,0,0,0.05925925925925927,53.27407407407408,0)" xlink:href="#n"/><use transform="matrix(0.05925925925925927,0,0,0.05925925925925927,65.12592592592593,0)" xlink:href="#q"/><use transform="matrix(0.05925925925925927,0,0,0.05925925925925927,75.7925925925926,0)" xlink:href="#m"/></g></defs></g></svg>